# This file uses centimeters as units for non-parametric coordinates.
# UVs by headus UVLayout v2.08.00 2012/05/02 06:40:44

mtllib bin_low.mtl
g default
v 32.837164 -35.895733 -16.419224
v 32.827734 -36.190204 -16.469181
v 32.783941 -35.968349 -16.491383
v 32.873663 -36.057735 -16.372700
v 33.683813 -37.929165 -16.610890
v 33.795904 -37.860546 -16.648136
v 32.893744 -36.168918 -16.360676
v 33.718206 -37.929035 -16.479542
v 33.670904 -37.946354 -16.543202
v 33.721991 -37.902179 -16.648365
v 34.337774 -39.159992 -16.754902
v 33.830389 -37.854389 -16.557575
v 33.793036 -37.884212 -16.497608
v 33.763464 -37.903476 -16.479923
v 34.481512 -39.086590 -16.703144
v 34.325293 -39.176830 -16.688023
v 34.375097 -39.133526 -16.792103
v 34.447546 -39.092670 -16.792317
v 34.445074 -39.115833 -16.643757
v 34.371771 -39.159809 -16.625477
v 35.117865 -40.528332 -16.953022
v 35.144415 -40.509449 -16.979801
v 35.196051 -40.480304 -16.980244
v 34.416113 -39.134731 -16.626118
v 35.194464 -40.496792 -16.873676
v 35.142248 -40.528179 -16.860371
v 35.109015 -40.540340 -16.905048
v 35.220373 -40.475940 -16.916416
v 35.585028 -41.306659 -17.067158
v 35.592413 -41.296642 -17.107197
v 35.657599 -41.256565 -17.129994
v 35.677923 -41.252926 -17.076710
v 35.173864 -40.510273 -16.860951
v 35.612738 -41.296505 -17.029865
v 35.614538 -41.280887 -17.129597
v 36.334967 -42.384174 -17.394932
v 36.319555 -42.395580 -17.379292
v 35.656317 -41.270321 -17.041004
v 35.639135 -41.281566 -17.030369
v 36.364996 -42.366680 -17.395100
v 36.379370 -42.364223 -17.357655
v 36.364386 -42.376850 -17.332661
v 36.333990 -42.395725 -17.324970
v 36.314520 -42.402912 -17.351231
v 37.583868 -44.138782 -17.932301
v 37.585943 -44.132488 -17.948963
v 36.352423 -42.384975 -17.325245
v 37.611334 -44.110286 -17.957172
v 37.595648 -44.134083 -17.916081
v 37.594244 -44.123470 -17.957874
v 37.612738 -44.119655 -17.919849
v 38.947760 -45.815822 -18.638233
v 37.620520 -44.109462 -17.934406
v 37.606146 -44.125973 -17.915745
v 32.901098 -36.385006 -16.423573
v 32.922400 -36.329593 -16.366108
v 32.772650 -35.818104 -16.474751
# 76 texture coords
vt 4.505513 1.595912
vt 4.481200 1.664690
vt 4.495581 1.624395
vt 3.847896 1.335391
vt 4.462334 1.710000
vt 4.446625 1.745436
vt 4.438612 1.763729
vt 3.804099 1.447255
vt 3.837356 1.363288
vt 3.822396 1.402564
vt 3.788994 1.482294
vt 3.097493 1.054149
vt 3.089026 1.073653
vt 3.077375 1.101235
vt 3.781286 1.500310
vt 3.054297 1.158836
vt 3.064527 1.133391
vt 2.669337 0.879909
vt 2.650813 0.918230
vt 2.640412 0.945127
vt 3.049004 1.171865
vt 2.661432 0.895722
vt 2.041197 0.617572
vt 2.047313 0.606778
vt 2.632545 0.966581
vt 2.628350 0.977496
vt 2.033507 0.633262
vt 2.026664 0.652403
vt 2.021442 0.667508
vt 1.032945 0.122784
vt 2.018591 0.675128
vt 1.026181 0.140479
vt 1.030237 0.130176
vt 1.018777 0.158751
vt 1.025253 0.152386
vt 1.017289 0.163652
vt 5.600429 1.502967
vt 5.654961 1.520803
vt 5.732014 1.560753
vt 5.766632 1.607100
vt 5.690293 1.601039
vt 5.581274 1.565107
vt 5.487157 1.512788
vt 5.519406 1.486454
vt 4.661970 1.197572
vt 4.649202 1.236542
vt 3.978627 1.006302
vt 3.991837 0.968236
vt 3.230455 0.712710
vt 3.221201 0.739973
vt 2.785614 0.580342
vt 2.777934 0.603107
vt 2.129633 0.393375
vt 2.134845 0.377294
vt 1.038763 0.116485
vt 1.040712 0.106808
vt -0.037510 -0.292321
vt 2.054915 0.594054
vt 2.678861 0.861048
vt 3.107397 1.030809
vt 3.860243 1.302184
vt 4.516971 1.561978
vt 1.014395 0.169681
vt 5.342198 1.869240
vt 5.426810 1.934746
vt 2.014541 0.685102
vt 5.515679 2.005029
vt 2.622395 0.991609
vt 5.571121 2.055685
vt 3.041646 1.188712
vt 5.514130 2.071061
vt 3.770938 1.523861
vt 5.426813 2.078251
vt 5.369106 2.078351
vt 4.428551 1.788006
vt 5.286533 2.075211
vn -0.866655 -0.403784 -0.293034
vn -0.866655 -0.403784 -0.293034
vn -0.866655 -0.403784 -0.293034
vn -0.866655 -0.403784 -0.293034
vn -0.555371 -0.205767 -0.805744
vn -0.555371 -0.205767 -0.805744
vn -0.555371 -0.205767 -0.805744
vn -0.555371 -0.205767 -0.805744
vn 0.005932 0.085647 -0.996308
vn 0.005932 0.085647 -0.996308
vn 0.005932 0.085647 -0.996308
vn 0.005932 0.085647 -0.996308
vn 0.827556 0.443882 -0.343684
vn 0.827556 0.443882 -0.343684
vn 0.827556 0.443882 -0.343684
vn 0.827556 0.443882 -0.343684
vn 0.731821 0.328278 0.597220
vn 0.731821 0.328278 0.597220
vn 0.731821 0.328278 0.597220
vn 0.731821 0.328278 0.597220
vn 0.072405 -0.033456 0.996814
vn 0.072405 -0.033456 0.996814
vn 0.072405 -0.033456 0.996814
vn 0.072405 -0.033456 0.996814
vn 0.451531 0.166771 0.876531
vn 0.451531 0.166771 0.876531
vn 0.451531 0.166771 0.876531
vn 0.451531 0.166771 0.876531
vn -0.684759 -0.384827 0.618881
vn -0.684759 -0.384827 0.618881
vn -0.684759 -0.384827 0.618881
vn -0.684759 -0.384827 0.618881
vn -0.050445 0.089576 -0.994702
vn -0.050445 0.089576 -0.994702
vn -0.050445 0.089576 -0.994702
vn -0.050445 0.089576 -0.994702
vn -0.862849 -0.426850 -0.270721
vn -0.862849 -0.426850 -0.270721
vn -0.862849 -0.426850 -0.270721
vn -0.862849 -0.426850 -0.270721
vn -0.598345 -0.227908 -0.768142
vn -0.598345 -0.227908 -0.768142
vn -0.598345 -0.227908 -0.768142
vn -0.598345 -0.227908 -0.768142
vn 0.813598 0.470300 -0.341872
vn 0.813598 0.470300 -0.341872
vn 0.813598 0.470300 -0.341872
vn 0.813598 0.470300 -0.341872
vn 0.059909 -0.086159 0.994479
vn 0.059909 -0.086159 0.994479
vn 0.059909 -0.086159 0.994479
vn 0.059909 -0.086159 0.994479
vn 0.447546 0.132134 0.884445
vn 0.447546 0.132134 0.884445
vn 0.447546 0.132135 0.884445
vn 0.447546 0.132134 0.884445
vn 0.730083 0.314250 0.606816
vn 0.730083 0.314250 0.606816
vn 0.730083 0.314250 0.606816
vn 0.730083 0.314250 0.606816
vn -0.666553 -0.426492 0.611401
vn -0.666553 -0.426492 0.611401
vn -0.666553 -0.426492 0.611401
vn -0.666553 -0.426492 0.611401
vn -0.852641 -0.446970 -0.270594
vn -0.852641 -0.446970 -0.270594
vn -0.852641 -0.446970 -0.270594
vn -0.852641 -0.446970 -0.270594
vn -0.601210 -0.231988 -0.764675
vn -0.601210 -0.231988 -0.764675
vn -0.601210 -0.231988 -0.764675
vn -0.601210 -0.231988 -0.764675
vn -0.062201 0.100824 -0.992958
vn -0.062201 0.100824 -0.992958
vn -0.062201 0.100824 -0.992958
vn -0.062201 0.100824 -0.992958
vn 0.807464 0.481731 -0.340495
vn 0.807464 0.481731 -0.340495
vn 0.807464 0.481731 -0.340495
vn 0.807464 0.481731 -0.340495
vn 0.740753 0.301820 0.600158
vn 0.740753 0.301820 0.600158
vn 0.740753 0.301820 0.600158
vn 0.740753 0.301820 0.600158
vn 0.084981 -0.121967 0.988889
vn 0.084981 -0.121967 0.988890
vn 0.084981 -0.121967 0.988890
vn 0.084981 -0.121967 0.988890
vn 0.467380 0.107529 0.877493
vn 0.467380 0.107529 0.877493
vn 0.467380 0.107529 0.877493
vn 0.467380 0.107529 0.877493
vn -0.644285 -0.466699 0.605879
vn -0.644285 -0.466699 0.605879
vn -0.644285 -0.466699 0.605879
vn -0.644285 -0.466699 0.605879
vn -0.842199 -0.465616 -0.271851
vn -0.842199 -0.465616 -0.271851
vn -0.842199 -0.465616 -0.271851
vn -0.842199 -0.465616 -0.271851
vn -0.609337 -0.223704 -0.760701
vn -0.609337 -0.223704 -0.760701
vn -0.609337 -0.223704 -0.760701
vn -0.609337 -0.223704 -0.760701
vn -0.086925 0.138552 -0.986533
vn -0.086925 0.138552 -0.986533
vn -0.086925 0.138552 -0.986533
vn -0.086925 0.138552 -0.986533
vn 0.780580 0.528508 -0.333728
vn 0.780580 0.528508 -0.333728
vn 0.780580 0.528508 -0.333728
vn 0.780580 0.528508 -0.333728
vn 0.737996 0.311164 0.598782
vn 0.737996 0.311164 0.598782
vn 0.737996 0.311164 0.598782
vn 0.737996 0.311163 0.598782
vn 0.104674 -0.152639 0.982723
vn 0.104674 -0.152639 0.982723
vn 0.104674 -0.152639 0.982723
vn 0.104674 -0.152639 0.982723
vn 0.477407 0.096072 0.873415
vn 0.477407 0.096072 0.873415
vn 0.477407 0.096072 0.873415
vn 0.477407 0.096072 0.873415
vn -0.617850 -0.510284 0.598224
vn -0.617850 -0.510284 0.598224
vn -0.617850 -0.510284 0.598224
vn -0.617850 -0.510284 0.598224
vn -0.103731 0.168022 -0.980310
vn -0.103731 0.168022 -0.980310
vn -0.103731 0.168022 -0.980310
vn -0.103731 0.168022 -0.980310
vn -0.831761 -0.482402 -0.274701
vn -0.831761 -0.482403 -0.274701
vn -0.831761 -0.482402 -0.274701
vn -0.831761 -0.482403 -0.274701
vn -0.612815 -0.217355 -0.759746
vn -0.612815 -0.217355 -0.759746
vn -0.612815 -0.217355 -0.759746
vn -0.612815 -0.217355 -0.759746
vn 0.759191 0.562117 -0.328106
vn 0.759191 0.562117 -0.328106
vn 0.759191 0.562117 -0.328106
vn 0.759191 0.562117 -0.328106
vn 0.121225 -0.182386 0.975725
vn 0.121225 -0.182386 0.975725
vn 0.121225 -0.182386 0.975725
vn 0.121225 -0.182386 0.975725
vn 0.485394 0.081043 0.870531
vn 0.485394 0.081043 0.870531
vn 0.485394 0.081043 0.870531
vn 0.485394 0.081043 0.870531
vn 0.736747 0.313506 0.599097
vn 0.736747 0.313506 0.599097
vn 0.736747 0.313506 0.599097
vn 0.736747 0.313506 0.599097
vn -0.593338 -0.547680 0.589912
vn -0.593338 -0.547681 0.589912
vn -0.593338 -0.547680 0.589912
vn -0.593338 -0.547680 0.589912
vn -0.131051 0.218132 -0.967080
vn -0.131051 0.218132 -0.967080
vn -0.131051 0.218132 -0.967080
vn -0.131051 0.218132 -0.967080
vn -0.816838 -0.502725 -0.282920
vn -0.816838 -0.502725 -0.282920
vn -0.816838 -0.502725 -0.282920
vn -0.816838 -0.502725 -0.282920
vn -0.616363 -0.199789 -0.761696
vn -0.616363 -0.199789 -0.761696
vn -0.616363 -0.199789 -0.761696
vn -0.616363 -0.199789 -0.761696
vn 0.720805 0.617056 -0.315725
vn 0.720805 0.617056 -0.315725
vn 0.720805 0.617056 -0.315725
vn 0.720805 0.617056 -0.315725
vn 0.143815 -0.223668 0.963997
vn 0.143815 -0.223668 0.963997
vn 0.143815 -0.223668 0.963997
vn 0.143815 -0.223668 0.963997
vn 0.492066 0.060194 0.868475
vn 0.492066 0.060194 0.868475
vn 0.492066 0.060194 0.868475
vn 0.492066 0.060194 0.868475
vn 0.729940 0.319196 0.604401
vn 0.729940 0.319196 0.604401
vn 0.729940 0.319197 0.604401
vn 0.729940 0.319196 0.604401
vn -0.555505 -0.599153 0.576568
vn -0.555505 -0.599153 0.576568
vn -0.555505 -0.599153 0.576568
vn -0.555505 -0.599153 0.576568
vn 0.601859 -0.769062 -0.215196
vn 0.601859 -0.769062 -0.215196
vn 0.601859 -0.769062 -0.215196
vn 0.602218 -0.768993 -0.214438
vn 0.602218 -0.768992 -0.214438
vn 0.602218 -0.768993 -0.214438
vn -0.158654 0.256335 -0.953479
vn -0.158654 0.256335 -0.953479
vn -0.158654 0.256335 -0.953479
vn -0.726886 -0.662091 0.182409
vn -0.726886 -0.662091 0.182409
vn -0.726886 -0.662091 0.182409
vn -0.617407 -0.187443 -0.763986
vn -0.617407 -0.187443 -0.763986
vn -0.617407 -0.187443 -0.763986
vn 0.175915 -0.265894 0.947816
vn 0.175915 -0.265894 0.947816
vn 0.175915 -0.265894 0.947816
vn 0.504797 0.033564 0.862585
vn 0.504797 0.033564 0.862585
vn 0.504797 0.033564 0.862585
vn 0.803905 0.583322 0.116069
vn 0.803905 0.583322 0.116069
vn 0.803905 0.583322 0.116069
vn -0.819462 -0.116735 0.561120
vn -0.819462 -0.116735 0.561120
vn -0.819462 -0.116735 0.561120
vn -0.819462 -0.116735 0.561120
vn -0.819462 -0.116735 0.561120
vn -0.819462 -0.116735 0.561120
vn -0.819462 -0.116735 0.561120
vn -0.819462 -0.116735 0.561120
s off
g polySurface96 polySurface94
usemtl feather:lambert61SG
f 5/1/1 9/62/2 55/64/3 2/65/4
f 10/3/5 5/1/6 2/65/7 3/67/8
f 6/2/9 10/3/10 3/67/11 57/69/12
f 12/5/13 6/2/14 57/69/15 1/71/16
f 13/6/17 12/5/18 1/71/19 4/73/20
f 8/75/21 14/7/22 7/74/23 56/76/24
f 14/7/25 13/6/26 4/73/27 7/74/28
usemtl feather:lambert60SG
f 9/46/29 8/45/30 56/44/31 55/43/32
f 10/3/33 6/2/34 18/10/35 17/9/36
f 9/62/37 5/1/38 11/4/39 16/61/40
f 5/1/41 10/3/42 17/9/43 11/4/44
f 6/2/45 12/5/46 15/8/47 18/10/48
f 14/7/49 8/75/50 20/72/51 24/15/52
f 13/6/53 14/7/54 24/15/55 19/11/56
f 12/5/57 13/6/58 19/11/59 15/8/60
f 8/45/61 9/46/62 16/47/63 20/48/64
f 21/12/65 27/60/66 16/61/67 11/4/68
f 22/13/69 21/12/70 11/4/71 17/9/72
f 23/14/73 22/13/74 17/9/75 18/10/76
f 28/17/77 23/14/78 18/10/79 15/8/80
f 25/16/81 28/17/82 15/8/83 19/11/84
f 26/70/85 33/21/86 24/15/87 20/72/88
f 33/21/89 25/16/90 19/11/91 24/15/92
f 27/50/93 26/49/94 20/48/95 16/47/96
f 30/18/97 29/59/98 27/60/99 21/12/100
f 35/22/101 30/18/102 21/12/103 22/13/104
f 31/19/105 35/22/106 22/13/107 23/14/108
f 32/20/109 31/19/110 23/14/111 28/17/112
f 38/25/113 32/20/114 28/17/115 25/16/116
f 34/68/117 39/26/118 33/21/119 26/70/120
f 39/26/121 38/25/122 25/16/123 33/21/124
f 29/52/125 34/51/126 26/49/127 27/50/128
f 35/22/129 31/19/130 40/27/131 36/23/132
f 29/59/133 30/18/134 37/24/135 44/58/136
f 30/18/137 35/22/138 36/23/139 37/24/140
f 31/19/141 32/20/142 41/28/143 40/27/144
f 39/26/145 34/68/146 43/66/147 47/31/148
f 38/25/149 39/26/150 47/31/151 42/29/152
f 32/20/153 38/25/154 42/29/155 41/28/156
f 34/51/157 29/52/158 44/53/159 43/54/160
f 36/23/161 40/27/162 48/32/163 50/33/164
f 44/58/165 37/24/166 46/30/167 45/55/168
f 37/24/169 36/23/170 50/33/171 46/30/172
f 40/27/173 41/28/174 53/35/175 48/32/176
f 47/31/177 43/66/178 49/63/179 54/36/180
f 42/29/181 47/31/182 54/36/183 51/34/184
f 41/28/185 42/29/186 51/34/187 53/35/188
f 43/54/189 44/53/190 45/55/191 49/56/192
f 53/35/193 51/34/194 48/32/195
f 46/30/196 49/56/197 45/55/198
f 52/57/199 50/33/200 48/32/201
f 52/57/202 49/56/203 46/30/204
f 52/57/205 46/30/206 50/33/207
f 52/57/208 54/36/209 49/63/210
f 52/57/211 51/34/212 54/36/213
f 52/57/214 48/32/215 51/34/216
usemtl feather:lambert61SG
f 7/37/217 4/38/218 1/39/219 57/40/220 3/41/221 2/42/222 55/43/223 56/44/224
