# This file uses centimeters as units for non-parametric coordinates.
# UVs by headus UVLayout v2.08.00 2012/05/02 06:40:44

mtllib horn_low.mtl
g default
v 174.320897 2.084920 112.814806
v 175.074346 2.427343 113.724551
v 175.499578 3.039273 113.596545
v 175.007390 3.189468 112.707522
v 175.935094 1.480123 113.592303
v 175.379613 0.521773 112.305529
v 174.107946 4.398111 111.627398
v 173.310918 2.398881 111.493243
v 174.560979 0.156385 110.740679
v 172.943517 4.157399 109.044787
v 172.390722 2.171215 109.796526
v 174.032903 -0.148640 109.310213
v 173.573034 -0.404465 107.701525
v 171.736699 1.527714 107.880114
v 171.334691 0.599678 105.590319
v 173.006505 -0.999656 105.752673
v 171.297979 -1.186756 103.264025
v 172.581457 -2.378459 103.346728
v 171.135686 -2.548482 101.401903
v 172.128454 -3.644384 101.226336
v 170.609136 -3.818598 99.286806
v 171.332769 -4.578809 99.164660
v 169.458043 -4.858368 97.067889
v 170.055608 -5.351141 96.952181
v 170.876867 -2.881262 98.703387
v 169.660589 -4.239950 96.470690
v 171.541143 -1.367828 100.537157
v 171.970159 0.644881 102.711504
v 172.117010 2.313068 104.816485
v 172.478734 3.613634 107.294634
v 176.148656 2.398163 113.174242
v 175.822759 2.300873 111.963793
v 175.539281 2.604558 110.953081
v 174.784032 3.270347 109.826891
v 174.370550 3.235169 108.445940
v 173.952642 2.538635 107.000414
v 170.116369 -4.864451 96.608843
v 171.482305 -3.890903 98.802477
v 172.692968 -2.291431 101.303271
v 173.348211 -0.812231 103.061022
v 173.435705 0.728324 104.519762
v 167.805089 -5.440262 94.586962
v 168.092809 -5.742598 94.357104
v 168.219884 -5.409801 94.273394
v 168.145330 -5.020863 94.392718
v 176.117254 2.911106 114.929674
v 175.838720 3.140690 108.154284
v 175.620061 2.543629 107.021502
v 174.047277 2.154707 106.681933
v 175.761144 2.114797 106.786761
v 175.844457 1.701010 106.833605
v 174.158513 1.414742 106.391131
v 175.908636 1.355978 107.122561
v 174.442418 0.963012 107.012804
v 174.669225 0.780829 107.565844
v 176.037053 1.147185 107.580309
v 176.200963 3.124037 109.104540
v 176.541082 1.880710 109.547686
v 176.436315 2.616758 109.637804
v 175.300268 2.563425 110.205523
v 175.471837 1.710448 110.113390
v 176.413976 1.311036 108.954546
v 175.242895 1.095851 109.498186
v 174.943395 0.766057 108.401858
v 176.064763 1.068240 108.262652
v 177.168401 2.999288 108.831835
v 177.006933 2.847706 108.137133
v 176.727056 2.521685 107.170580
v 176.868200 2.134301 106.851275
v 176.887792 1.798947 106.897921
v 176.917486 1.575945 107.143755
v 176.992101 1.544185 107.493502
v 177.108343 1.629763 107.987948
v 177.234838 1.793512 108.573870
v 177.390935 2.083325 109.065600
v 177.423772 2.626906 109.231860
v 177.450506 2.594613 108.774538
v 177.446905 2.230606 108.746508
v 177.355443 2.054894 108.464632
v 177.251531 1.932270 107.954195
v 177.142583 1.800168 107.448595
v 177.087743 1.783943 107.181811
v 177.046056 1.950714 107.056933
v 176.984899 2.163186 107.026202
v 177.223546 2.506289 108.028246
v 173.997106 1.214714 105.845995
v 175.423498 2.092692 110.905825
v 175.659948 1.744917 112.042895
v 175.240178 1.485200 110.758974
v 174.796911 0.720243 109.696581
v 174.436742 0.420145 108.458147
v 174.189855 0.437763 107.450655
v 173.939001 0.532507 106.751299
v 166.104925 -5.757392 92.296923
v 173.679174 0.000835 107.237078
v 172.020238 1.213823 103.429430
# 142 texture coords
vt 0.179688 1.727011
vt 0.167965 1.818574
vt 0.148259 1.605398
vt 0.155787 1.462315
vt 0.194169 1.311232
vt 0.255462 1.135923
vt 0.376838 0.950044
vt 0.469397 0.797869
vt 0.553223 0.621420
vt 0.617700 0.423017
vt 0.767564 1.897806
vt 0.774029 1.803742
vt 0.802536 1.725738
vt 0.868063 1.631065
vt 0.885077 1.516739
vt 0.889086 1.385460
vt 0.654901 0.194062
vt 0.770901 1.513168
vt 0.765688 1.416562
vt 0.871029 1.347843
vt 0.744643 1.385461
vt 1.991932 1.105749
vt 1.877633 1.083577
vt 1.883563 1.133700
vt 1.990763 1.144350
vt 0.752508 1.585791
vt 2.044175 1.300321
vt 1.966552 1.356401
vt 2.014768 1.247503
vt 1.926572 1.293725
vt 1.897960 1.203054
vt 1.986109 1.195341
vt 0.677929 1.573894
vt 0.679682 1.521777
vt 0.685590 1.443586
vt 2.068447 1.118581
vt 2.068916 1.143776
vt 2.076816 1.179617
vt 2.087889 1.222760
vt 2.106396 1.259817
vt 2.121918 1.240207
vt 2.110422 1.217349
vt 2.102164 1.178691
vt 2.090631 1.141061
vt 2.087389 1.121419
vt 2.096687 1.109502
vt 1.925575 1.398536
vt 1.879288 1.303411
vt 1.850989 1.204643
vt 1.838335 1.124818
vt 1.825244 1.067559
vt 1.786386 1.109346
vt 0.087438 1.762679
vt -0.007327 1.655003
vt 0.350869 1.592557
vt 0.328446 1.730363
vt 0.113637 1.837832
vt -0.007870 1.434391
vt 0.262898 1.842997
vt 0.373894 1.472311
vt 0.151847 1.943804
vt 0.022548 1.288005
vt 0.394216 1.340379
vt 0.109296 1.086783
vt 0.426120 1.178182
vt 0.186194 0.973898
vt 0.225733 0.917150
vt 0.507261 0.980047
vt 0.368110 0.742308
vt 0.582299 0.807268
vt 0.472499 0.590553
vt 0.632265 0.635879
vt 0.558505 0.392024
vt 0.674202 0.440718
vt 0.611452 0.195870
vt 0.691029 0.193674
vt 0.678301 -0.023030
vt 1.015688 1.556677
vt 0.977566 1.767265
vt 0.868670 1.855986
vt 0.766381 1.716643
vt 0.811131 1.674497
vt 1.025939 1.416785
vt 0.836291 1.928805
vt 0.729186 1.801292
vt 0.729613 1.638714
vt 1.017185 1.203256
vt 0.791202 2.033453
vt 0.693016 1.918288
vt 0.652637 1.609833
vt 0.641790 1.572548
vt 0.649788 1.510118
vt 0.839485 1.296162
vt 0.843632 1.254200
vt 0.873019 1.142449
vt 0.993178 1.069457
vt 0.655082 1.426303
vt 0.728211 1.359197
vt 0.824840 0.988488
vt 0.979004 0.999425
vt 0.663931 1.411403
vt 0.654840 1.387700
vt 0.934121 0.774385
vt 0.812351 0.807821
vt 0.917322 0.585397
vt 0.829814 0.565552
vt 0.876272 0.361842
vt 0.935825 0.365182
vt 0.965421 0.147859
vt 0.990178 0.167198
vt 1.066335 -0.049206
vt 2.078264 1.344318
vt 2.013512 1.405853
vt 2.137735 1.286211
vt 1.964508 1.425317
vt 2.148369 1.247765
vt 1.930069 1.506053
vt 1.815270 1.373649
vt 1.795437 1.263783
vt 2.146276 1.183731
vt 1.833633 1.506644
vt 1.892550 1.621173
vt 1.761163 1.146760
vt 1.880184 1.020864
vt 2.000257 1.072434
vt 2.113026 1.103744
vt 1.789623 0.894412
vt 1.856638 0.987313
vt 1.676187 1.012826
vt 2.079222 1.096139
vt 1.655342 0.806500
vt 1.531308 0.856256
vt 2.105756 1.087509
vt 1.506571 0.702345
vt 1.396524 0.720208
vt 1.321815 0.543366
vt 1.276160 0.582484
vt 1.179927 0.388532
vt 1.150285 0.423024
vt 1.043244 0.200515
vt 1.017901 0.211931
vt 0.912934 0.021366
vn -0.723010 0.529150 0.444135
vn -0.723010 0.529150 0.444135
vn -0.723010 0.529150 0.444135
vn -0.723010 0.529150 0.444135
vn -0.520285 -0.562106 0.642915
vn -0.520285 -0.562106 0.642915
vn -0.520285 -0.562106 0.642915
vn -0.520285 -0.562106 0.642915
vn -0.643875 0.301674 0.703149
vn -0.643875 0.301674 0.703149
vn -0.643875 0.301674 0.703149
vn -0.643875 0.301674 0.703149
vn -0.690868 -0.567613 0.447791
vn -0.690868 -0.567613 0.447791
vn -0.690868 -0.567613 0.447791
vn -0.690868 -0.567613 0.447791
vn -0.856945 0.349018 0.379251
vn -0.856946 0.349018 0.379251
vn -0.856945 0.349018 0.379251
vn -0.856946 0.349018 0.379251
vn -0.708339 -0.564222 0.424158
vn -0.708339 -0.564222 0.424158
vn -0.708339 -0.564222 0.424158
vn -0.708339 -0.564222 0.424158
vn -0.687606 -0.621280 0.375779
vn -0.687606 -0.621280 0.375779
vn -0.687606 -0.621280 0.375779
vn -0.687606 -0.621280 0.375779
vn -0.654262 -0.651704 0.383696
vn -0.654262 -0.651705 0.383696
vn -0.654262 -0.651704 0.383696
vn -0.654262 -0.651704 0.383696
vn -0.624581 -0.619610 0.475375
vn -0.624581 -0.619610 0.475375
vn -0.624581 -0.619610 0.475375
vn -0.624581 -0.619610 0.475375
vn -0.602687 -0.620094 0.502247
vn -0.602687 -0.620094 0.502247
vn -0.602687 -0.620094 0.502247
vn -0.602687 -0.620094 0.502247
vn -0.586357 -0.624903 0.515444
vn -0.586357 -0.624903 0.515444
vn -0.586357 -0.624903 0.515444
vn -0.586357 -0.624903 0.515444
vn -0.519572 -0.652553 0.551560
vn -0.519572 -0.652553 0.551560
vn -0.519572 -0.652553 0.551560
vn -0.519572 -0.652553 0.551560
vn -0.870525 0.436142 0.227962
vn -0.870525 0.436142 0.227962
vn -0.870525 0.436142 0.227962
vn -0.870525 0.436142 0.227962
vn -0.941648 0.332975 0.049254
vn -0.941648 0.332975 0.049254
vn -0.941648 0.332975 0.049254
vn -0.941648 0.332975 0.049254
vn -0.950974 0.291212 -0.104139
vn -0.950974 0.291212 -0.104139
vn -0.950974 0.291212 -0.104139
vn -0.950974 0.291212 -0.104139
vn -0.930427 0.306720 -0.200568
vn -0.930427 0.306721 -0.200568
vn -0.930427 0.306721 -0.200568
vn -0.930427 0.306720 -0.200568
vn -0.930427 0.306721 -0.200568
vn -0.930537 0.365547 -0.021807
vn -0.930537 0.365547 -0.021807
vn -0.930537 0.365547 -0.021807
vn -0.930537 0.365547 -0.021807
vn -0.922034 0.348516 0.168495
vn -0.922034 0.348516 0.168495
vn -0.922034 0.348516 0.168495
vn -0.922033 0.348516 0.168495
vn 0.615053 0.757001 -0.220589
vn 0.615053 0.757001 -0.220589
vn 0.615053 0.757001 -0.220589
vn 0.615053 0.757001 -0.220589
vn 0.772205 0.634978 0.022409
vn 0.772205 0.634978 0.022409
vn 0.772205 0.634978 0.022409
vn 0.772205 0.634978 0.022409
vn 0.620562 0.747966 -0.235478
vn 0.620562 0.747966 -0.235478
vn 0.620562 0.747966 -0.235478
vn 0.620562 0.747966 -0.235478
vn 0.484746 0.858563 -0.167010
vn 0.484746 0.858563 -0.167010
vn 0.484746 0.858562 -0.167010
vn 0.419983 0.800883 -0.426850
vn 0.419983 0.800883 -0.426850
vn 0.419983 0.800883 -0.426850
vn 0.419983 0.800883 -0.426850
vn 0.704570 0.369620 -0.605774
vn 0.704570 0.369620 -0.605774
vn 0.704570 0.369620 -0.605774
vn 0.704570 0.369620 -0.605774
vn 0.853625 -0.371905 -0.364707
vn 0.853625 -0.371905 -0.364707
vn 0.853625 -0.371905 -0.364707
vn 0.853625 -0.371905 -0.364707
vn 0.913804 -0.348778 -0.208127
vn 0.913804 -0.348778 -0.208127
vn 0.913804 -0.348778 -0.208127
vn 0.913804 -0.348778 -0.208127
vn 0.910249 -0.412815 0.032091
vn 0.910249 -0.412815 0.032091
vn 0.910249 -0.412815 0.032091
vn 0.910249 -0.412815 0.032091
vn 0.949152 -0.298615 0.099701
vn 0.949152 -0.298615 0.099701
vn 0.949152 -0.298615 0.099701
vn 0.949152 -0.298615 0.099701
vn -0.475116 -0.737561 0.479863
vn -0.475116 -0.737561 0.479863
vn -0.475116 -0.737561 0.479863
vn -0.475116 -0.737561 0.479863
vn 0.747761 -0.433485 -0.502935
vn 0.747761 -0.433485 -0.502935
vn 0.747761 -0.433485 -0.502935
vn 0.747761 -0.433485 -0.502935
vn -0.720237 0.617624 0.315910
vn -0.720237 0.617625 0.315910
vn -0.720237 0.617625 0.315910
vn -0.720237 0.617625 0.315910
vn -0.507156 -0.553144 0.660928
vn -0.507156 -0.553144 0.660928
vn -0.507156 -0.553144 0.660928
vn 0.613835 0.760637 -0.211278
vn 0.613835 0.760637 -0.211278
vn 0.613835 0.760636 -0.211278
vn -0.716878 0.579370 0.387835
vn -0.716878 0.579370 0.387835
vn -0.716878 0.579370 0.387835
vn 0.978227 -0.193847 0.074129
vn 0.978227 -0.193847 0.074129
vn 0.978227 -0.193847 0.074129
vn 0.712888 0.385928 -0.585534
vn 0.712888 0.385928 -0.585534
vn 0.712888 0.385928 -0.585534
vn 0.712888 0.385928 -0.585534
vn -0.012928 0.895016 -0.445847
vn -0.012928 0.895016 -0.445847
vn -0.012928 0.895016 -0.445847
vn -0.012928 0.895016 -0.445847
vn 0.036466 0.569504 -0.821179
vn 0.036466 0.569504 -0.821179
vn 0.036466 0.569504 -0.821179
vn 0.036466 0.569504 -0.821179
vn 0.138709 0.227216 -0.963915
vn 0.138709 0.227216 -0.963915
vn 0.138709 0.227216 -0.963915
vn 0.138709 0.227216 -0.963915
vn 0.265921 -0.672832 -0.690350
vn 0.265921 -0.672832 -0.690350
vn 0.265921 -0.672832 -0.690350
vn 0.265921 -0.672832 -0.690350
vn 0.251608 -0.869625 -0.424790
vn 0.251608 -0.869625 -0.424790
vn 0.251608 -0.869625 -0.424790
vn 0.251608 -0.869625 -0.424790
vn 0.071999 0.996895 -0.031880
vn 0.071999 0.996895 -0.031880
vn 0.071999 0.996895 -0.031880
vn 0.071999 0.996895 -0.031880
vn 0.458778 -0.022110 0.888276
vn 0.458778 -0.022110 0.888276
vn 0.458778 -0.022110 0.888276
vn 0.458778 -0.022110 0.888276
vn 0.345945 0.690892 0.634815
vn 0.345945 0.690893 0.634815
vn 0.345945 0.690893 0.634815
vn 0.345945 0.690892 0.634815
vn 0.406975 -0.709425 0.575401
vn 0.406975 -0.709425 0.575401
vn 0.406975 -0.709425 0.575401
vn 0.406975 -0.709426 0.575401
vn 0.272544 -0.940631 0.202320
vn 0.272544 -0.940631 0.202320
vn 0.272544 -0.940631 0.202320
vn 0.272544 -0.940631 0.202320
vn 0.172529 0.975715 -0.134962
vn 0.172529 0.975715 -0.134962
vn 0.172529 0.975715 -0.134962
vn 0.172529 0.975715 -0.134962
vn 0.148236 0.891843 -0.427368
vn 0.148236 0.891843 -0.427368
vn 0.148236 0.891843 -0.427368
vn 0.148236 0.891843 -0.427368
vn 0.078962 0.578448 -0.811889
vn 0.078962 0.578448 -0.811889
vn 0.078962 0.578448 -0.811889
vn 0.078962 0.578448 -0.811889
vn 0.065638 -0.114689 -0.991231
vn 0.065638 -0.114689 -0.991231
vn 0.065638 -0.114689 -0.991231
vn 0.065638 -0.114689 -0.991231
vn 0.133920 -0.667479 -0.732487
vn 0.133920 -0.667479 -0.732487
vn 0.133920 -0.667479 -0.732487
vn 0.133920 -0.667479 -0.732487
vn 0.271953 -0.901407 -0.336909
vn 0.271953 -0.901407 -0.336909
vn 0.271953 -0.901407 -0.336909
vn 0.271953 -0.901407 -0.336909
vn 0.425047 -0.903955 -0.046900
vn 0.425047 -0.903955 -0.046900
vn 0.425047 -0.903955 -0.046900
vn 0.425047 -0.903955 -0.046900
vn 0.508961 -0.856769 0.083106
vn 0.508960 -0.856769 0.083106
vn 0.508961 -0.856769 0.083106
vn 0.508961 -0.856769 0.083106
vn 0.525682 -0.728231 0.439703
vn 0.525682 -0.728231 0.439703
vn 0.525682 -0.728231 0.439703
vn 0.525682 -0.728231 0.439703
vn 0.444318 -0.151924 0.882893
vn 0.444318 -0.151924 0.882893
vn 0.444318 -0.151924 0.882893
vn 0.444318 -0.151924 0.882893
vn 0.250182 0.766762 0.591172
vn 0.250182 0.766762 0.591172
vn 0.250182 0.766762 0.591172
vn 0.250182 0.766762 0.591172
vn 0.820839 0.571108 0.007653
vn 0.820839 0.571108 0.007653
vn 0.820839 0.571108 0.007653
vn 0.993451 -0.060635 0.096843
vn 0.993451 -0.060635 0.096843
vn 0.993451 -0.060635 0.096843
vn 0.993451 -0.060635 0.096843
vn 0.904315 -0.425566 -0.033271
vn 0.904315 -0.425567 -0.033271
vn 0.904315 -0.425566 -0.033271
vn 0.904315 -0.425566 -0.033271
vn 0.895956 -0.437950 -0.073914
vn 0.895956 -0.437950 -0.073914
vn 0.895956 -0.437950 -0.073914
vn 0.895956 -0.437950 -0.073914
vn 0.875629 -0.473735 -0.094072
vn 0.875629 -0.473735 -0.094072
vn 0.875629 -0.473735 -0.094072
vn 0.875629 -0.473735 -0.094072
vn 0.807439 -0.560632 -0.183667
vn 0.807439 -0.560632 -0.183667
vn 0.807439 -0.560632 -0.183667
vn 0.807439 -0.560632 -0.183667
vn 0.745837 -0.382259 -0.545531
vn 0.745837 -0.382259 -0.545531
vn 0.745837 -0.382259 -0.545531
vn 0.745837 -0.382259 -0.545531
vn 0.765948 0.022193 -0.642520
vn 0.765948 0.022193 -0.642520
vn 0.765948 0.022193 -0.642520
vn 0.765948 0.022193 -0.642520
vn 0.594685 0.629092 -0.500592
vn 0.594685 0.629092 -0.500592
vn 0.594685 0.629092 -0.500592
vn 0.690976 0.609246 -0.389064
vn 0.690976 0.609246 -0.389064
vn 0.690976 0.609246 -0.389064
vn 0.690976 0.609246 -0.389064
vn 0.760583 0.575347 -0.300816
vn 0.760583 0.575347 -0.300816
vn 0.760582 0.575347 -0.300816
vn 0.760583 0.575347 -0.300816
vn 0.967113 0.195012 -0.163288
vn 0.967113 0.195012 -0.163288
vn 0.967113 0.195012 -0.163288
vn 0.967113 0.195012 -0.163288
vn 0.962735 0.096875 -0.252500
vn 0.962735 0.096875 -0.252500
vn 0.962735 0.096875 -0.252500
vn 0.962735 0.096875 -0.252500
vn 0.955097 0.001941 -0.296286
vn 0.955097 0.001941 -0.296286
vn 0.955097 0.001941 -0.296286
vn 0.955097 0.001941 -0.296286
vn 0.973424 0.075333 -0.216265
vn 0.973424 0.075333 -0.216265
vn 0.973424 0.075333 -0.216265
vn 0.486897 0.726885 -0.484324
vn 0.486897 0.726885 -0.484324
vn 0.486897 0.726885 -0.484324
vn 0.486897 0.726885 -0.484324
vn 0.252700 -0.961320 -0.109575
vn 0.252700 -0.961320 -0.109575
vn 0.252700 -0.961320 -0.109575
vn 0.252700 -0.961320 -0.109575
vn 0.892141 -0.408855 -0.192153
vn 0.892141 -0.408855 -0.192153
vn 0.892141 -0.408855 -0.192153
vn 0.892141 -0.408855 -0.192153
vn 0.892141 -0.408855 -0.192153
vn 0.892141 -0.408855 -0.192153
vn 0.921252 -0.249237 -0.298622
vn 0.921252 -0.249237 -0.298622
vn 0.921252 -0.249237 -0.298622
vn 0.921252 -0.249237 -0.298622
vn 0.925512 0.220325 -0.308034
vn 0.925512 0.220325 -0.308034
vn 0.925512 0.220325 -0.308034
vn 0.925512 0.220325 -0.308034
vn 0.997338 -0.019530 0.070254
vn 0.997338 -0.019530 0.070254
vn 0.997338 -0.019530 0.070254
vn 0.997338 -0.019530 0.070254
vn 0.933621 -0.252502 -0.254154
vn 0.933621 -0.252502 -0.254154
vn 0.933621 -0.252502 -0.254154
vn 0.933621 -0.252502 -0.254154
vn 0.924750 -0.310378 -0.220233
vn 0.924750 -0.310378 -0.220233
vn 0.924750 -0.310378 -0.220233
vn 0.924750 -0.310378 -0.220233
vn 0.839257 -0.424336 -0.339981
vn 0.839257 -0.424336 -0.339981
vn 0.839257 -0.424336 -0.339981
vn 0.772607 -0.606151 0.188837
vn 0.772607 -0.606151 0.188837
vn 0.772607 -0.606151 0.188837
vn 0.772607 -0.606151 0.188837
vn 0.610186 -0.791195 0.041042
vn 0.610186 -0.791195 0.041042
vn 0.610186 -0.791195 0.041042
vn 0.610186 -0.791195 0.041042
vn 0.570922 -0.802037 -0.175457
vn 0.570922 -0.802037 -0.175457
vn 0.570922 -0.802037 -0.175457
vn 0.570922 -0.802037 -0.175457
vn 0.840062 -0.533507 -0.098316
vn 0.840062 -0.533507 -0.098316
vn 0.840062 -0.533507 -0.098316
vn 0.840062 -0.533507 -0.098316
vn 0.746743 -0.659489 -0.086310
vn 0.746743 -0.659489 -0.086310
vn 0.746743 -0.659489 -0.086310
vn 0.746743 -0.659489 -0.086310
vn 0.657054 -0.643377 -0.392870
vn 0.657054 -0.643377 -0.392870
vn 0.657054 -0.643377 -0.392870
vn 0.657054 -0.643377 -0.392870
vn 0.837789 -0.371709 -0.399927
vn 0.837789 -0.371709 -0.399927
vn 0.837789 -0.371709 -0.399927
vn 0.837789 -0.371709 -0.399927
vn -0.455202 -0.771344 0.444770
vn -0.455202 -0.771344 0.444770
vn -0.455202 -0.771344 0.444770
vn 0.657795 -0.410101 -0.631762
vn 0.657795 -0.410101 -0.631762
vn 0.657795 -0.410101 -0.631762
vn -0.628827 0.682603 0.372329
vn -0.628827 0.682603 0.372329
vn -0.628827 0.682603 0.372329
vn 0.612768 0.336726 -0.714935
vn 0.612768 0.336726 -0.714935
vn 0.612768 0.336726 -0.714935
vn 0.688106 0.348234 -0.636587
vn 0.688106 0.348234 -0.636587
vn 0.688106 0.348234 -0.636587
vn 0.688106 0.348234 -0.636587
vn 0.677918 0.446841 -0.583747
vn 0.677918 0.446841 -0.583747
vn 0.677918 0.446841 -0.583747
vn 0.677918 0.446841 -0.583747
vn 0.744442 -0.619455 -0.249160
vn 0.744443 -0.619455 -0.249160
vn 0.744442 -0.619455 -0.249160
vn 0.744442 -0.619455 -0.249160
vn 0.689505 -0.642487 -0.334354
vn 0.689505 -0.642487 -0.334354
vn 0.689505 -0.642487 -0.334354
vn 0.632230 0.563419 -0.531831
vn 0.632230 0.563419 -0.531831
vn 0.632230 0.563419 -0.531831
vn 0.632230 0.563419 -0.531831
vn 0.632230 0.563419 -0.531831
vn 0.632230 0.563419 -0.531831
vn 0.648983 0.525423 -0.550229
vn 0.648983 0.525423 -0.550229
vn 0.648983 0.525423 -0.550229
vn 0.648983 0.525423 -0.550229
vn 0.941710 -0.261315 -0.211890
vn 0.941710 -0.261315 -0.211890
vn 0.941710 -0.261315 -0.211890
s off
g polySurface523 polySurface462
usemtl lambert62SG
f 1/1/1 2/2/2 3/57/3 4/53/4
f 6/56/5 5/59/6 2/2/7 1/1/8
f 8/3/9 1/1/10 4/53/11 7/54/12
f 6/56/13 1/1/14 8/3/15 9/55/16
f 8/3/17 7/54/18 10/58/19 11/4/20
f 9/55/21 8/3/22 11/4/23 12/60/24
f 14/5/25 13/63/26 12/60/27 11/4/28
f 13/63/29 14/5/30 15/6/31 16/65/32
f 18/68/33 16/65/34 15/6/35 17/7/36
f 17/7/37 19/8/38 20/70/39 18/68/40
f 19/8/41 21/9/42 22/72/43 20/70/44
f 21/9/45 23/10/46 24/74/47 22/72/48
f 23/10/49 21/9/50 25/71/51 26/73/52
f 27/69/53 25/71/54 21/9/55 19/8/56
f 28/67/57 27/69/58 19/8/59 17/7/60
f 29/64/61 96/66/62 28/67/63 17/7/64 15/6/65
f 30/62/66 29/64/67 15/6/68 14/5/69
f 30/62/70 14/5/71 11/4/72 10/58/73
f 32/12/74 4/80/75 3/84/76 31/11/77
f 7/79/78 4/80/79 32/12/80 33/13/81
f 34/14/82 10/78/83 7/79/84 33/13/85
f 10/78/86 34/14/87 35/15/88
f 10/78/89 35/15/90 36/16/91 30/83/92
f 38/106/93 37/107/94 26/108/95 25/105/96
f 37/138/97 38/136/98 22/137/99 24/139/100
f 38/136/101 39/134/102 20/135/103 22/137/104
f 39/134/105 40/131/106 18/132/107 20/135/108
f 40/131/109 41/127/110 16/129/111 18/132/112
f 43/76/113 24/74/114 23/10/115 42/17/116
f 44/140/117 37/138/118 24/139/119 43/141/120
f 26/73/121 45/75/122 42/17/123 23/10/124
f 5/59/125 46/61/126 2/2/127
f 3/84/128 46/88/129 31/11/130
f 46/61/131 3/57/132 2/2/133
f 31/11/134 46/88/135 5/89/136
f 25/105/137 27/103/138 39/104/139 38/106/140
f 36/16/141 35/15/142 47/18/143 48/19/144
f 50/21/145 49/20/146 36/16/147 48/19/148
f 50/21/149 51/98/150 52/93/151 49/20/152
f 52/124/153 51/125/154 53/22/155 54/23/156
f 56/25/157 55/24/158 54/23/159 53/22/160
f 57/26/161 47/18/162 35/15/163 34/14/164
f 61/28/165 58/27/166 59/112/167 60/113/168
f 57/26/169 34/14/170 60/82/171 59/86/172
f 63/30/173 62/29/174 58/27/175 61/28/176
f 62/29/177 63/30/178 64/31/179 65/32/180
f 67/34/181 47/18/182 57/26/183 66/33/184
f 67/34/185 68/35/186 48/19/187 47/18/188
f 50/21/189 48/19/190 68/35/191 69/101/192
f 51/98/193 50/21/194 69/101/195 70/102/196
f 71/36/197 53/22/198 51/125/199 70/130/200
f 53/22/201 71/36/202 72/37/203 56/25/204
f 56/25/205 72/37/206 73/38/207 65/32/208
f 74/39/209 62/29/210 65/32/211 73/38/212
f 75/40/213 58/27/214 62/29/215 74/39/216
f 76/114/217 59/112/218 58/27/219 75/40/220
f 59/86/221 76/90/222 66/33/223 57/26/224
f 76/90/225 77/91/226 66/33/227
f 76/114/228 75/40/229 78/41/230 77/116/231
f 79/42/232 78/41/233 75/40/234 74/39/235
f 80/43/236 79/42/237 74/39/238 73/38/239
f 81/44/240 80/43/241 73/38/242 72/37/243
f 82/45/244 81/44/245 72/37/246 71/36/247
f 71/36/248 70/130/249 83/46/250 82/45/251
f 84/126/252 83/46/253 70/130/254 69/133/255
f 84/97/256 69/101/257 68/35/258
f 85/92/259 84/97/260 68/35/261 67/34/262
f 77/91/263 85/92/264 67/34/265 66/33/266
f 84/126/267 81/44/268 82/45/269 83/46/270
f 85/120/271 80/43/272 81/44/273 84/126/274
f 79/42/275 85/120/276 77/116/277 78/41/278
f 80/43/279 85/120/280 79/42/281
f 30/83/282 36/16/283 49/20/284 29/87/285
f 64/31/286 55/24/287 56/25/288 65/32/289
f 16/129/290 41/127/291 86/128/292 93/51/293 95/52/294 13/123/295
f 88/85/296 87/81/297 33/13/298 32/12/299
f 87/81/300 60/82/301 34/14/302 33/13/303
f 61/28/304 60/113/305 87/115/306 89/47/307
f 6/121/308 89/47/309 87/115/310 88/117/311
f 32/12/312 31/11/313 5/89/314 88/85/315
f 6/121/316 9/118/317 89/47/318
f 63/30/319 61/28/320 89/47/321 90/48/322
f 90/48/323 91/49/324 64/31/325 63/30/326
f 91/49/327 92/50/328 55/24/329 64/31/330
f 9/118/331 12/119/332 90/48/333 89/47/334
f 12/119/335 13/123/336 91/49/337 90/48/338
f 92/50/339 93/51/340 54/23/341 55/24/342
f 86/128/343 52/124/344 54/23/345 93/51/346
f 94/77/347 43/76/348 42/17/349
f 94/142/350 44/140/351 43/141/352
f 45/75/353 94/77/354 42/17/355
f 44/109/356 94/111/357 45/110/358
f 37/107/359 44/109/360 45/110/361 26/108/362
f 27/103/363 28/100/364 40/99/365 39/104/366
f 92/50/367 91/49/368 13/123/369 95/52/370
f 93/51/371 92/50/372 95/52/373
f 49/20/374 52/93/375 86/94/376 41/95/377 96/96/378 29/87/379
f 41/95/380 40/99/381 28/100/382 96/96/383
f 6/121/384 88/117/385 5/122/386
