# This file uses centimeters as units for non-parametric coordinates.
# UVs by headus UVLayout v2.08.00 2012/05/02 06:40:44

mtllib satin_ribbon_low.mtl
g default
v 190.275976 -10.909485 106.167437
v 191.857549 -10.803979 103.073565
v 187.958196 -12.748218 107.568285
v 186.765752 -12.168044 109.043703
v 182.381200 -13.185078 110.216143
v 182.332403 -13.088315 111.115374
v 185.251439 -14.627374 111.425402
v 181.797216 -14.771723 112.216448
v 188.656255 -13.895401 110.014300
v 184.374944 -17.549879 113.324114
v 180.527746 -17.706297 113.389086
v 178.431432 -22.081108 116.626543
v 182.047277 -22.302603 116.769854
v 175.883184 -26.776510 120.684801
v 179.440587 -26.944073 120.509814
v 173.325475 -31.904688 121.835924
v 176.894201 -32.496815 121.815813
v 170.889440 -37.254997 118.859393
v 174.181493 -37.867897 120.713793
v 170.707799 -40.749622 114.763995
v 173.298925 -41.649471 118.184832
v 176.534856 -41.935829 119.784472
v 177.536138 -38.815849 121.602770
v 180.323827 -33.076393 121.603869
v 182.871435 -27.259285 120.649645
v 185.114873 -22.672979 117.066210
v 187.113988 -17.869360 113.275744
# 27 texture coords
vt 1.709990 1.614725
vt 1.512528 1.488864
vt 1.350762 1.332434
vt 1.034241 1.096722
vt 0.699980 0.865077
vt 0.379923 0.640261
vt 0.065044 0.428499
vt 0.225239 0.274456
vt 0.547115 0.504031
vt 0.871581 0.736368
vt 0.210081 0.782969
vt -0.127735 0.557970
vt -0.154534 0.244158
vt 0.040481 0.132290
vt 0.512666 0.984121
vt 1.180957 0.971468
vt -0.395698 0.361880
vt 0.851641 1.228879
vt 1.487771 1.229575
vt 1.141600 1.448507
vt 1.741932 1.445716
vt 1.309962 1.575097
vt 2.003330 1.628724
vt 1.402212 1.663079
vt 2.195141 1.726430
vt 1.812078 1.681165
vt 1.431774 1.706869
vn -0.704545 0.520996 -0.481851
vn -0.704545 0.520996 -0.481851
vn -0.704545 0.520995 -0.481851
vn -0.704545 0.520995 -0.481851
vn -0.308174 0.860205 -0.406295
vn -0.308174 0.860205 -0.406295
vn -0.308174 0.860205 -0.406295
vn -0.308174 0.860205 -0.406295
vn 0.213120 0.564798 0.797235
vn 0.213120 0.564798 0.797235
vn 0.213120 0.564798 0.797235
vn 0.213120 0.564798 0.797235
vn 0.245722 0.665138 0.705133
vn 0.245722 0.665138 0.705133
vn 0.245722 0.665138 0.705133
vn 0.245722 0.665138 0.705133
vn 0.086907 0.437486 0.895016
vn 0.086907 0.437486 0.895016
vn 0.086907 0.437486 0.895016
vn 0.086907 0.437486 0.895016
vn -0.003301 0.591804 0.806075
vn -0.003301 0.591804 0.806075
vn -0.003301 0.591804 0.806075
vn -0.003301 0.591804 0.806075
vn 0.037508 0.628298 0.777068
vn 0.037508 0.628298 0.777068
vn 0.037508 0.628298 0.777068
vn 0.037508 0.628298 0.777068
vn 0.048310 0.201946 0.978204
vn 0.048310 0.201946 0.978204
vn 0.048310 0.201946 0.978204
vn 0.048310 0.201946 0.978204
vn -0.287505 -0.216821 0.932914
vn -0.287505 -0.216821 0.932914
vn -0.287505 -0.216821 0.932914
vn -0.287505 -0.216821 0.932914
vn -0.656960 -0.452756 0.602840
vn -0.656960 -0.452756 0.602840
vn -0.656960 -0.452756 0.602840
vn -0.656960 -0.452756 0.602840
vn -0.388402 -0.412897 0.823808
vn -0.388402 -0.412897 0.823808
vn -0.388402 -0.412897 0.823808
vn -0.388402 -0.412897 0.823808
vn -0.109130 -0.044564 0.993028
vn -0.109130 -0.044564 0.993028
vn -0.109130 -0.044564 0.993028
vn -0.109130 -0.044564 0.993028
vn 0.033843 0.180258 0.983037
vn 0.033843 0.180258 0.983037
vn 0.033843 0.180258 0.983037
vn 0.033843 0.180258 0.983037
vn 0.012376 0.617596 0.786398
vn 0.012376 0.617596 0.786398
vn 0.012376 0.617596 0.786398
vn 0.012376 0.617596 0.786398
vn 0.036077 0.592851 0.804504
vn 0.036077 0.592851 0.804504
vn 0.036077 0.592851 0.804504
vn 0.036077 0.592851 0.804504
vn 0.156603 0.555902 0.816363
vn 0.156603 0.555902 0.816363
vn 0.156603 0.555902 0.816363
vn 0.156603 0.555902 0.816363
s off
g polySurface471 polySurface462
usemtl lambert62SG
f 1/23/1 2/25/2 3/26/3 4/1/4
f 3/26/5 5/27/6 6/24/7 4/1/8
f 8/22/9 7/2/10 4/1/11 6/24/12
f 4/1/13 7/2/14 9/21/15 1/23/16
f 11/20/17 10/3/18 7/2/19 8/22/20
f 11/20/21 12/18/22 13/4/23 10/3/24
f 12/18/25 14/15/26 15/5/27 13/4/28
f 14/15/29 16/11/30 17/6/31 15/5/32
f 19/7/33 17/6/34 16/11/35 18/12/36
f 19/7/37 18/12/38 20/17/39 21/13/40
f 21/13/41 22/14/42 23/8/43 19/7/44
f 23/8/45 24/9/46 17/6/47 19/7/48
f 15/5/49 17/6/50 24/9/51 25/10/52
f 25/10/53 26/16/54 13/4/55 15/5/56
f 26/16/57 27/19/58 10/3/59 13/4/60
f 7/2/61 10/3/62 27/19/63 9/21/64
